/* XPM */
static char *emacs[] = {
/* columns rows colors chars-per-pixel */
"32 32 134 2 ",
"   c #00000F",
".  c #010137",
"X  c #04043A",
"o  c #0C0B3D",
"O  c #070741",
"+  c #0F0F42",
"@  c #151444",
"#  c #14134B",
"$  c #1C1C4C",
"%  c #191952",
"&  c #1E1E59",
"*  c #2B2B4F",
"=  c #252357",
"-  c #25255B",
";  c #2C2C5F",
":  c #302F55",
">  c #302F5F",
",  c #30305D",
"<  c #252562",
"1  c #2E2B61",
"2  c #323265",
"3  c #393862",
"4  c #35336B",
"5  c #3D3D6E",
"6  c #3B3A74",
"7  c #33317A",
"8  c #413E7C",
"9  c #4F4F55",
"0  c #4F4F5E",
"q  c #4C4B6B",
"w  c #53536D",
"e  c #404074",
"r  c #484777",
"t  c #494874",
"y  c #4E4C7F",
"u  c #504E7B",
"i  c #535276",
"p  c #5B5B73",
"a  c #55557D",
"s  c #5D5E79",
"d  c #605F78",
"f  c #63637B",
"g  c #494782",
"h  c #4F4E80",
"j  c #48478A",
"k  c #4D4A89",
"l  c #444484",
"z  c #5D5D81",
"x  c #59578E",
"c  c #474495",
"v  c #484597",
"b  c #4D4A98",
"n  c #524E94",
"m  c #545396",
"M  c #595794",
"N  c #595895",
"B  c #54529D",
"V  c #5C5A9B",
"C  c #646385",
"Z  c #6F6E82",
"A  c #68688A",
"S  c #707084",
"D  c #7B7B85",
"F  c #797988",
"G  c #66659C",
"H  c #4D49A5",
"J  c #4F4AA8",
"K  c #514DA7",
"L  c #534EA9",
"P  c #5653A7",
"I  c #5A57A6",
"U  c #5C59A5",
"Y  c #5652AB",
"T  c #5A56AA",
"R  c #5D5AAC",
"E  c #5E5BB2",
"W  c #605EA7",
"Q  c #615EAD",
"!  c #615DB1",
"~  c #6664A4",
"^  c #6360AF",
"/  c #6C6AAA",
"(  c #6663B1",
")  c #6966B2",
"_  c #6D6AB4",
"`  c #716EB6",
"'  c #706EB9",
"]  c #7472B6",
"[  c #7D7BB0",
"{  c #7674B9",
"}  c #7976BA",
"|  c #7C7BBC",
" . c #817FBE",
".. c #82828C",
"X. c #868791",
"o. c #95959F",
"O. c #8888A0",
"+. c #8380BF",
"@. c #9B9BB9",
"#. c #A6A4BE",
"$. c #8482C0",
"%. c #8986C2",
"&. c #8D8AC4",
"*. c #918EC6",
"=. c #9290C7",
"-. c #9594C9",
";. c #9896CA",
":. c #9C9ACC",
">. c #A4A3CC",
",. c #A4A2D0",
"<. c #A9A7D3",
"1. c #ACAAD4",
"2. c #B0AFD7",
"3. c #B3B2D7",
"4. c #B5B4D9",
"5. c #B8B7DB",
"6. c #BDBBDD",
"7. c #C1BFDF",
"8. c gainsboro",
"9. c #E0DFDF",
"0. c #C4C3E1",
"q. c #C9C7E3",
"w. c #CBCAE4",
"e. c #D5D4EA",
"r. c #DBDAED",
"t. c #DFDFF0",
"y. c #E4E4F1",
"u. c #ECEBF5",
"i. c #F0EFF7",
"p. c #EFF0F7",
"a. c #F0F0F7",
"s. c #F3F3F9",
"d. c #FCFBFD",
"f. c None",
/* pixels */
"f.f.f.f.f.f.f.f.f.f.f.f.Y Y L L L L f.f.f.f.f.f.f.f.f.f.f.f.f.f.",
"f.f.f.f.f.f.f.f.f.Y Y Y Y R ! T ! Y Y Y Y f.f.f.f.f.f.f.f.f.f.f.",
"f.f.f.f.f.f.f.Y Y Y Y R ! ) ` ` ' ) ( ! L J L f.f.f.f.f.f.f.f.f.",
"f.f.f.f.f.Y Y T Y T ) ` {  . .$.-.:.:.-.&.| T J f.f.f.f.f.f.f.f.",
"f.f.f.f.Y T Y T Q ) _ { | $.+.&.,.7.e.t.s.d.r.{ L f.f.f.f.f.f.f.",
"f.f.f.T T T T Q ) | :.1.1.1.>.;.*.%.%.$.<.i.d.u.) L f.f.f.f.f.f.",
"f.f.f.Y Y T Q ^ ' 0.a.p.a.a.u.u.t.e.q.7.0.i.i.d.&.J Y f.f.f.f.f.",
"f.f.T I T Q Q ` } w.a.u.u.a.s.s.s.d.d.d.d.s.s.s.+.L T Y f.f.f.f.",
"f.f.T T T R ) { | :.u.u.u.r.5.3.2.3.6.q.e.r.r.<.R T Y T f.f.f.f.",
"f.T T T T Q _ } +.+.5.u.p.0.=.:.:.-.&.%. . .` Q R T R H u f.f.f.",
"f.T T T T Q _ { +.&.&.0.p.p.6.;.;.;.*.%. .` ( Q R ! v - o.9 f.f.",
"f.T T R R R ) { +.+.&.+.5.u.s.q.*.%.%. .{ _ ( ! ! v % X.s   f.f.",
"T T I R R R Q ( _ | %.&.%.>.e.u.e.*.{ ] ` ) ! ) v % F p % f.f.f.",
"T R R R T P ) %.1.q.e.r.e.0.5.w.u.t.;.) _ ) ) B & Z p o 8 8 f.f.",
"T T R T T %.r.a.a.u.u.u.a.s.p.u.y.u.u.3.` ) I < f w X 4 P T f.f.",
"R T R P &.s.d.u.u.u.a.u.e.q.0.5.5.2.1.1.$.Q 6 p q . 1 n T T f.f.",
"T R R P w.s.u.p.p.s.e.-.] ` ` _ _ _ ) ^ ) l S p X = m I T f.f.f.",
"U R R P 2.p.y.y.s.w.) ( ` ] { } ] ] ] ' j C q $ , g T R T f.f.f.",
"f.R R T ( w.u.y.s.3.W ` { | | | | | | m h a X $ k T R T T f.f.f.",
"f.R R R T ] w.y.y.u.1.| ] } | +. .%.~ r C + # g U R R T T f.f.f.",
"f.R R R R T ^ 1.t.u.p.t.3.;.%.|  .] 5 A $ + h U R R T R f.f.f.f.",
"f.f.R Q R Q R T  .0.y.p.s.a.y.w.1.e z - X r / _ Q R R T f.f.f.f.",
"f.f.R R R Q Q Q / } ;.0.r.u.s.d.X.t 1 + C [ ] _ R R R f.f.f.f.f.",
"f.f.f.R R Q R ( ] $.+.+.=.;.1.@.a - X ..9.a.>.R R R T f.f.f.f.f.",
"f.f.f.f.E Q R ( } =.>.1.5.0.>.2 q * D 8.s.p.1.P T E f.f.f.f.f.f.",
"f.f.f.f.f.R E ^ _ | &.,.3.0.C # o d #.2.;.] T E U f.f.f.f.f.f.f.",
"f.f.f.f.f.f.R E R Q ( ' | V # X 3 G _ ( T T E M f.f.f.f.f.f.f.f.",
"f.f.f.f.f.f.0 N ! E E ( ! & . ; M ^ ( E E T i f.f.f.f.f.f.f.f.f.",
"f.f.f.f.f.f.f.f.w N U ( 7 O 4 B E E T V a f.f.f.f.f.f.f.f.f.f.f.",
"f.f.f.f.f.f.f.f.f.f.f.q @ : y N x a 0 f.f.f.f.f.f.f.f.f.f.f.f.f.",
"f.f.f.f.f.f.f.f.f.f.f.f.f.f.f.f.f.f.f.f.f.f.f.f.f.f.f.f.f.f.f.f.",
"f.f.f.f.f.f.f.f.f.f.f.f.f.f.f.f.f.f.f.f.f.f.f.f.f.f.f.f.f.f.f.f."
};
